<svg t="1712826524102" class="icon" viewBox="0 0 1024 1024" version="1.1" xmlns="http://www.w3.org/2000/svg" p-id="4180" width="200" height="200"><path d="M512 512m-448 0a448 448 0 1 0 896 0 448 448 0 1 0-896 0Z" fill="#4565ED" p-id="4181"></path><path d="M512 512m-448 0a448 448 0 1 0 896 0 448 448 0 1 0-896 0Z" fill="#88C6FF" p-id="4182"></path><path d="M752 742H272l60-460h360z" fill="#0285FF" p-id="4183"></path><path d="M657.1 682.7h-314L382.4 404 369 664z" fill="#D9EDFF" p-id="4184"></path><path d="M432 337m-15 0a15 15 0 1 0 30 0 15 15 0 1 0-30 0Z" fill="#D9EDFF" p-id="4185"></path><path d="M592 337m-15 0a15 15 0 1 0 30 0 15 15 0 1 0-30 0Z" fill="#D9EDFF" p-id="4186"></path><path d="M512 217c35.9 0 65 29.1 65 65h30c0-52.5-42.5-95-95-95s-95 42.5-95 95h30c0-35.9 29.1-65 65-65z" fill="#FFEC16" p-id="4187"></path></svg>